<svg width="260" height="230" viewBox="0 0 260 230" fill="none" xmlns="http://www.w3.org/2000/svg">
<path fill-rule="evenodd" clip-rule="evenodd" d="M85 230C109.537 230 129.487 210.362 129.99 185.946L130.01 185.946C130.513 210.362 150.463 230 175 230C199.853 230 220 209.853 220 185C220 176.159 217.45 167.913 213.046 160.958C213.694 160.986 214.345 161 215 161C239.853 161 260 140.853 260 116C260 91.1472 239.853 71 215 71C213.872 71 212.753 71.0415 211.646 71.1231C216.905 63.758 220 54.7404 220 45C220 20.1472 199.853 0 175 0C152.849 0 134.436 16.0052 130.694 37.0821C130.23 37.0614 129.764 37.0446 129.297 37.0317C125.535 15.9797 107.134 0 85 0C60.1472 0 40 20.1472 40 45C40 54.7404 43.0947 63.758 48.3544 71.1231C47.2469 71.0415 46.1283 71 45 71C20.1472 71 0 91.1472 0 116C0 140.853 20.1472 161 45 161C45.6546 161 46.3059 160.986 46.9537 160.958C42.5496 167.913 40 176.159 40 185C40 209.853 60.1472 230 85 230ZM130 165C157.614 165 180 142.614 180 115C180 87.3858 157.614 65 130 65C102.386 65 80 87.3858 80 115C80 142.614 102.386 165 130 165Z" fill="black"/>
<ellipse cx="112.5" cy="107" rx="3.5" ry="7" fill="black"/>
<ellipse cx="147.5" cy="107" rx="3.5" ry="7" fill="black"/>
<path d="M116 121C116 121 121 129 130 129C139 129 144 121 144 121" stroke="black" stroke-width="3" stroke-linecap="round"/>
</svg>
